<?xml version="1.0" standalone="no"?>
<!DOCTYPE svg PUBLIC "-//W3C//DTD SVG 20010904//EN"
 "http://www.w3.org/TR/2001/REC-SVG-20010904/DTD/svg10.dtd">
<svg version="1.0" xmlns="http://www.w3.org/2000/svg"
 width="109.000000pt" height="20.000000pt" viewBox="0 0 109.000000 20.000000"
 preserveAspectRatio="xMidYMid meet">

<g transform="translate(0.000000,20.000000) scale(0.100000,-0.100000)"
fill="#000000" stroke="none">
<path d="M0 100 l0 -100 545 0 545 0 0 100 0 100 -545 0 -545 0 0 -100z m308
58 c22 -22 12 -47 -28 -73 -22 -14 -40 -30 -40 -35 0 -15 -33 -12 -69 6 -18 9
-56 19 -84 23 -38 4 -53 11 -55 24 -5 25 23 32 61 14 17 -8 49 -20 70 -25 33
-9 41 -8 58 9 10 10 19 28 19 38 0 29 45 42 68 19z m102 -28 c0 -5 -8 -10 -17
-10 -17 -1 -17 -1 0 -11 27 -16 21 -39 -10 -38 -23 0 -24 2 -10 8 17 6 18 8 3
20 -12 10 -14 17 -5 27 13 16 39 19 39 4z m60 0 c0 -5 -4 -10 -10 -10 -5 0
-11 -12 -11 -27 l-2 -28 -4 28 c-2 15 -9 27 -14 27 -5 0 -9 5 -9 10 0 6 11 10
25 10 14 0 25 -4 25 -10z m50 0 c0 -5 -6 -10 -12 -10 -10 0 -9 -3 1 -9 10 -6
10 -10 1 -16 -9 -6 -9 -10 1 -16 10 -6 8 -9 -8 -9 -20 0 -23 5 -23 35 0 28 4
35 20 35 11 0 20 -4 20 -10z m60 -16 c15 -37 13 -41 -20 -41 -16 0 -30 1 -30
2 0 1 5 16 11 34 13 38 26 40 39 5z m73 5 c8 34 27 24 27 -14 0 -19 -4 -35
-10 -35 -5 0 -10 6 -10 13 0 8 -4 7 -10 -3 -9 -13 -11 -13 -20 0 -6 10 -10 11
-10 3 0 -7 -4 -13 -10 -13 -11 0 -14 53 -3 64 4 4 15 -3 24 -15 l16 -22 6 22z
m122 11 c3 -5 -3 -10 -14 -10 -14 0 -21 -6 -21 -20 0 -11 4 -20 10 -20 5 0 7
7 4 15 -4 9 0 15 10 15 10 0 16 -8 16 -21 0 -16 -5 -20 -27 -17 -17 2 -29 10
-31 21 -7 33 37 63 53 37z m60 -15 c1 -11 4 -26 8 -33 10 -15 -5 -16 -21 0 -9
9 -12 9 -12 0 0 -7 -4 -12 -10 -12 -11 0 -14 53 -3 64 13 13 38 1 38 -19z m78
3 c15 -23 1 -48 -28 -48 -14 0 -25 2 -25 4 0 2 -3 11 -6 19 -6 16 23 50 39 44
6 -2 15 -10 20 -19z m73 -34 c-4 -9 -15 -14 -28 -12 -17 2 -24 11 -26 31 -2
15 1 27 7 27 6 0 11 -11 11 -25 0 -14 5 -25 10 -25 6 0 10 11 10 23 0 13 3 27
8 31 9 10 16 -30 8 -50z m63 43 c8 -11 5 -19 -14 -35 -32 -28 -35 -28 -35 6 0
43 25 57 49 29z"/>
<path d="M872 103 c5 -25 28 -28 28 -4 0 12 -6 21 -16 21 -9 0 -14 -7 -12 -17z"/>
<path d="M1020 109 c0 -5 5 -7 10 -4 6 3 10 8 10 11 0 2 -4 4 -10 4 -5 0 -10
-5 -10 -11z"/>
</g>
</svg>
